<?xml version="1.0" encoding="UTF-8" standalone="no"?>
<!DOCTYPE svg PUBLIC "-//W3C//DTD SVG 1.1//EN"
 "http://www.w3.org/Graphics/SVG/1.1/DTD/svg11.dtd">
<!-- Generated by graphviz version 2.42.4 (0)
 -->
<!-- Title: G Pages: 1 -->
<svg width="890pt" height="692pt"
 viewBox="0.00 0.00 890.00 692.00" xmlns="http://www.w3.org/2000/svg" xmlns:xlink="http://www.w3.org/1999/xlink">
<g id="graph0" class="graph" transform="scale(1 1) rotate(0) translate(4 688)">
<title>G</title>
<polygon fill="white" stroke="transparent" points="-4,4 -4,-688 886,-688 886,4 -4,4"/>
<!-- 1 -->
<g id="node1" class="node">
<title>1</title>
<ellipse fill="none" stroke="black" cx="135" cy="-162" rx="27" ry="18"/>
<text text-anchor="middle" x="135" y="-158.3" font-family="Times,serif" font-size="14.00">1</text>
</g>
<!-- 4 -->
<g id="node2" class="node">
<title>4</title>
<ellipse fill="none" stroke="black" cx="80" cy="-90" rx="27" ry="18"/>
<text text-anchor="middle" x="80" y="-86.3" font-family="Times,serif" font-size="14.00">4</text>
</g>
<!-- 1&#45;&gt;4 -->
<g id="edge1" class="edge">
<title>1&#45;&gt;4</title>
<path fill="none" stroke="black" d="M123.07,-145.81C115.79,-136.55 106.34,-124.52 98.15,-114.09"/>
<polygon fill="black" stroke="black" points="100.84,-111.86 91.91,-106.16 95.34,-116.18 100.84,-111.86"/>
</g>
<!-- 2 -->
<g id="node3" class="node">
<title>2</title>
<ellipse fill="none" stroke="black" cx="107" cy="-18" rx="27" ry="18"/>
<text text-anchor="middle" x="107" y="-14.3" font-family="Times,serif" font-size="14.00">2</text>
</g>
<!-- 4&#45;&gt;2 -->
<g id="edge4" class="edge">
<title>4&#45;&gt;2</title>
<path fill="none" stroke="black" d="M86.4,-72.41C89.51,-64.34 93.33,-54.43 96.83,-45.35"/>
<polygon fill="black" stroke="black" points="100.13,-46.55 100.46,-35.96 93.6,-44.03 100.13,-46.55"/>
</g>
<!-- 2&#45;&gt;1 -->
<g id="edge2" class="edge">
<title>2&#45;&gt;1</title>
<path fill="none" stroke="black" d="M110.39,-36.19C115.19,-60.53 124.01,-105.28 129.69,-134.06"/>
<polygon fill="black" stroke="black" points="126.25,-134.74 131.62,-143.87 133.12,-133.38 126.25,-134.74"/>
</g>
<!-- 3 -->
<g id="node4" class="node">
<title>3</title>
<ellipse fill="none" stroke="black" cx="27" cy="-450" rx="27" ry="18"/>
<text text-anchor="middle" x="27" y="-446.3" font-family="Times,serif" font-size="14.00">3</text>
</g>
<!-- 10 -->
<g id="node5" class="node">
<title>10</title>
<ellipse fill="none" stroke="black" cx="63" cy="-378" rx="27" ry="18"/>
<text text-anchor="middle" x="63" y="-374.3" font-family="Times,serif" font-size="14.00">10</text>
</g>
<!-- 3&#45;&gt;10 -->
<g id="edge3" class="edge">
<title>3&#45;&gt;10</title>
<path fill="none" stroke="black" d="M35.35,-432.76C39.71,-424.28 45.15,-413.71 50.04,-404.2"/>
<polygon fill="black" stroke="black" points="53.23,-405.64 54.7,-395.15 47.01,-402.44 53.23,-405.64"/>
</g>
<!-- 5 -->
<g id="node6" class="node">
<title>5</title>
<ellipse fill="none" stroke="black" cx="63" cy="-306" rx="27" ry="18"/>
<text text-anchor="middle" x="63" y="-302.3" font-family="Times,serif" font-size="14.00">5</text>
</g>
<!-- 10&#45;&gt;5 -->
<g id="edge10" class="edge">
<title>10&#45;&gt;5</title>
<path fill="none" stroke="black" d="M63,-359.7C63,-351.98 63,-342.71 63,-334.11"/>
<polygon fill="black" stroke="black" points="66.5,-334.1 63,-324.1 59.5,-334.1 66.5,-334.1"/>
</g>
<!-- 16 -->
<g id="node7" class="node">
<title>16</title>
<ellipse fill="none" stroke="black" cx="63" cy="-234" rx="27" ry="18"/>
<text text-anchor="middle" x="63" y="-230.3" font-family="Times,serif" font-size="14.00">16</text>
</g>
<!-- 5&#45;&gt;16 -->
<g id="edge5" class="edge">
<title>5&#45;&gt;16</title>
<path fill="none" stroke="black" d="M63,-287.7C63,-279.98 63,-270.71 63,-262.11"/>
<polygon fill="black" stroke="black" points="66.5,-262.1 63,-252.1 59.5,-262.1 66.5,-262.1"/>
</g>
<!-- 8 -->
<g id="node11" class="node">
<title>8</title>
<ellipse fill="none" stroke="black" cx="63" cy="-162" rx="27" ry="18"/>
<text text-anchor="middle" x="63" y="-158.3" font-family="Times,serif" font-size="14.00">8</text>
</g>
<!-- 16&#45;&gt;8 -->
<g id="edge16" class="edge">
<title>16&#45;&gt;8</title>
<path fill="none" stroke="black" d="M63,-215.7C63,-207.98 63,-198.71 63,-190.11"/>
<polygon fill="black" stroke="black" points="66.5,-190.1 63,-180.1 59.5,-190.1 66.5,-190.1"/>
</g>
<!-- 6 -->
<g id="node8" class="node">
<title>6</title>
<ellipse fill="none" stroke="black" cx="27" cy="-522" rx="27" ry="18"/>
<text text-anchor="middle" x="27" y="-518.3" font-family="Times,serif" font-size="14.00">6</text>
</g>
<!-- 6&#45;&gt;3 -->
<g id="edge6" class="edge">
<title>6&#45;&gt;3</title>
<path fill="none" stroke="black" d="M27,-503.7C27,-495.98 27,-486.71 27,-478.11"/>
<polygon fill="black" stroke="black" points="30.5,-478.1 27,-468.1 23.5,-478.1 30.5,-478.1"/>
</g>
<!-- 7 -->
<g id="node9" class="node">
<title>7</title>
<ellipse fill="none" stroke="black" cx="207" cy="-378" rx="27" ry="18"/>
<text text-anchor="middle" x="207" y="-374.3" font-family="Times,serif" font-size="14.00">7</text>
</g>
<!-- 22 -->
<g id="node10" class="node">
<title>22</title>
<ellipse fill="none" stroke="black" cx="207" cy="-306" rx="27" ry="18"/>
<text text-anchor="middle" x="207" y="-302.3" font-family="Times,serif" font-size="14.00">22</text>
</g>
<!-- 7&#45;&gt;22 -->
<g id="edge7" class="edge">
<title>7&#45;&gt;22</title>
<path fill="none" stroke="black" d="M207,-359.7C207,-351.98 207,-342.71 207,-334.11"/>
<polygon fill="black" stroke="black" points="210.5,-334.1 207,-324.1 203.5,-334.1 210.5,-334.1"/>
</g>
<!-- 11 -->
<g id="node14" class="node">
<title>11</title>
<ellipse fill="none" stroke="black" cx="207" cy="-234" rx="27" ry="18"/>
<text text-anchor="middle" x="207" y="-230.3" font-family="Times,serif" font-size="14.00">11</text>
</g>
<!-- 22&#45;&gt;11 -->
<g id="edge22" class="edge">
<title>22&#45;&gt;11</title>
<path fill="none" stroke="black" d="M207,-287.7C207,-279.98 207,-270.71 207,-262.11"/>
<polygon fill="black" stroke="black" points="210.5,-262.1 207,-252.1 203.5,-262.1 210.5,-262.1"/>
</g>
<!-- 8&#45;&gt;4 -->
<g id="edge8" class="edge">
<title>8&#45;&gt;4</title>
<path fill="none" stroke="black" d="M67.12,-144.05C69.01,-136.26 71.3,-126.82 73.42,-118.08"/>
<polygon fill="black" stroke="black" points="76.85,-118.82 75.8,-108.28 70.04,-117.17 76.85,-118.82"/>
</g>
<!-- 9 -->
<g id="node12" class="node">
<title>9</title>
<ellipse fill="none" stroke="black" cx="207" cy="-594" rx="27" ry="18"/>
<text text-anchor="middle" x="207" y="-590.3" font-family="Times,serif" font-size="14.00">9</text>
</g>
<!-- 28 -->
<g id="node13" class="node">
<title>28</title>
<ellipse fill="none" stroke="black" cx="207" cy="-522" rx="27" ry="18"/>
<text text-anchor="middle" x="207" y="-518.3" font-family="Times,serif" font-size="14.00">28</text>
</g>
<!-- 9&#45;&gt;28 -->
<g id="edge9" class="edge">
<title>9&#45;&gt;28</title>
<path fill="none" stroke="black" d="M207,-575.7C207,-567.98 207,-558.71 207,-550.11"/>
<polygon fill="black" stroke="black" points="210.5,-550.1 207,-540.1 203.5,-550.1 210.5,-550.1"/>
</g>
<!-- 14 -->
<g id="node19" class="node">
<title>14</title>
<ellipse fill="none" stroke="black" cx="207" cy="-450" rx="27" ry="18"/>
<text text-anchor="middle" x="207" y="-446.3" font-family="Times,serif" font-size="14.00">14</text>
</g>
<!-- 28&#45;&gt;14 -->
<g id="edge28" class="edge">
<title>28&#45;&gt;14</title>
<path fill="none" stroke="black" d="M207,-503.7C207,-495.98 207,-486.71 207,-478.11"/>
<polygon fill="black" stroke="black" points="210.5,-478.1 207,-468.1 203.5,-478.1 210.5,-478.1"/>
</g>
<!-- 34 -->
<g id="node15" class="node">
<title>34</title>
<ellipse fill="none" stroke="black" cx="207" cy="-162" rx="27" ry="18"/>
<text text-anchor="middle" x="207" y="-158.3" font-family="Times,serif" font-size="14.00">34</text>
</g>
<!-- 11&#45;&gt;34 -->
<g id="edge11" class="edge">
<title>11&#45;&gt;34</title>
<path fill="none" stroke="black" d="M207,-215.7C207,-207.98 207,-198.71 207,-190.11"/>
<polygon fill="black" stroke="black" points="210.5,-190.1 207,-180.1 203.5,-190.1 210.5,-190.1"/>
</g>
<!-- 12 -->
<g id="node16" class="node">
<title>12</title>
<ellipse fill="none" stroke="black" cx="27" cy="-594" rx="27" ry="18"/>
<text text-anchor="middle" x="27" y="-590.3" font-family="Times,serif" font-size="14.00">12</text>
</g>
<!-- 12&#45;&gt;6 -->
<g id="edge12" class="edge">
<title>12&#45;&gt;6</title>
<path fill="none" stroke="black" d="M27,-575.7C27,-567.98 27,-558.71 27,-550.11"/>
<polygon fill="black" stroke="black" points="30.5,-550.1 27,-540.1 23.5,-550.1 30.5,-550.1"/>
</g>
<!-- 13 -->
<g id="node17" class="node">
<title>13</title>
<ellipse fill="none" stroke="black" cx="279" cy="-594" rx="27" ry="18"/>
<text text-anchor="middle" x="279" y="-590.3" font-family="Times,serif" font-size="14.00">13</text>
</g>
<!-- 40 -->
<g id="node18" class="node">
<title>40</title>
<ellipse fill="none" stroke="black" cx="279" cy="-522" rx="27" ry="18"/>
<text text-anchor="middle" x="279" y="-518.3" font-family="Times,serif" font-size="14.00">40</text>
</g>
<!-- 13&#45;&gt;40 -->
<g id="edge13" class="edge">
<title>13&#45;&gt;40</title>
<path fill="none" stroke="black" d="M279,-575.7C279,-567.98 279,-558.71 279,-550.11"/>
<polygon fill="black" stroke="black" points="282.5,-550.1 279,-540.1 275.5,-550.1 282.5,-550.1"/>
</g>
<!-- 14&#45;&gt;7 -->
<g id="edge14" class="edge">
<title>14&#45;&gt;7</title>
<path fill="none" stroke="black" d="M207,-431.7C207,-423.98 207,-414.71 207,-406.11"/>
<polygon fill="black" stroke="black" points="210.5,-406.1 207,-396.1 203.5,-406.1 210.5,-406.1"/>
</g>
<!-- 15 -->
<g id="node20" class="node">
<title>15</title>
<ellipse fill="none" stroke="black" cx="351" cy="-594" rx="27" ry="18"/>
<text text-anchor="middle" x="351" y="-590.3" font-family="Times,serif" font-size="14.00">15</text>
</g>
<!-- 46 -->
<g id="node21" class="node">
<title>46</title>
<ellipse fill="none" stroke="black" cx="351" cy="-522" rx="27" ry="18"/>
<text text-anchor="middle" x="351" y="-518.3" font-family="Times,serif" font-size="14.00">46</text>
</g>
<!-- 15&#45;&gt;46 -->
<g id="edge15" class="edge">
<title>15&#45;&gt;46</title>
<path fill="none" stroke="black" d="M351,-575.7C351,-567.98 351,-558.71 351,-550.11"/>
<polygon fill="black" stroke="black" points="354.5,-550.1 351,-540.1 347.5,-550.1 354.5,-550.1"/>
</g>
<!-- 17 -->
<g id="node22" class="node">
<title>17</title>
<ellipse fill="none" stroke="black" cx="423" cy="-666" rx="27" ry="18"/>
<text text-anchor="middle" x="423" y="-662.3" font-family="Times,serif" font-size="14.00">17</text>
</g>
<!-- 52 -->
<g id="node23" class="node">
<title>52</title>
<ellipse fill="none" stroke="black" cx="423" cy="-594" rx="27" ry="18"/>
<text text-anchor="middle" x="423" y="-590.3" font-family="Times,serif" font-size="14.00">52</text>
</g>
<!-- 17&#45;&gt;52 -->
<g id="edge17" class="edge">
<title>17&#45;&gt;52</title>
<path fill="none" stroke="black" d="M423,-647.7C423,-639.98 423,-630.71 423,-622.11"/>
<polygon fill="black" stroke="black" points="426.5,-622.1 423,-612.1 419.5,-622.1 426.5,-622.1"/>
</g>
<!-- 18 -->
<g id="node24" class="node">
<title>18</title>
<ellipse fill="none" stroke="black" cx="207" cy="-666" rx="27" ry="18"/>
<text text-anchor="middle" x="207" y="-662.3" font-family="Times,serif" font-size="14.00">18</text>
</g>
<!-- 18&#45;&gt;9 -->
<g id="edge18" class="edge">
<title>18&#45;&gt;9</title>
<path fill="none" stroke="black" d="M207,-647.7C207,-639.98 207,-630.71 207,-622.11"/>
<polygon fill="black" stroke="black" points="210.5,-622.1 207,-612.1 203.5,-622.1 210.5,-622.1"/>
</g>
<!-- 19 -->
<g id="node25" class="node">
<title>19</title>
<ellipse fill="none" stroke="black" cx="495" cy="-666" rx="27" ry="18"/>
<text text-anchor="middle" x="495" y="-662.3" font-family="Times,serif" font-size="14.00">19</text>
</g>
<!-- 58 -->
<g id="node26" class="node">
<title>58</title>
<ellipse fill="none" stroke="black" cx="495" cy="-594" rx="27" ry="18"/>
<text text-anchor="middle" x="495" y="-590.3" font-family="Times,serif" font-size="14.00">58</text>
</g>
<!-- 19&#45;&gt;58 -->
<g id="edge19" class="edge">
<title>19&#45;&gt;58</title>
<path fill="none" stroke="black" d="M495,-647.7C495,-639.98 495,-630.71 495,-622.11"/>
<polygon fill="black" stroke="black" points="498.5,-622.1 495,-612.1 491.5,-622.1 498.5,-622.1"/>
</g>
<!-- 20 -->
<g id="node27" class="node">
<title>20</title>
<ellipse fill="none" stroke="black" cx="99" cy="-450" rx="27" ry="18"/>
<text text-anchor="middle" x="99" y="-446.3" font-family="Times,serif" font-size="14.00">20</text>
</g>
<!-- 20&#45;&gt;10 -->
<g id="edge20" class="edge">
<title>20&#45;&gt;10</title>
<path fill="none" stroke="black" d="M90.65,-432.76C86.29,-424.28 80.85,-413.71 75.96,-404.2"/>
<polygon fill="black" stroke="black" points="78.99,-402.44 71.3,-395.15 72.77,-405.64 78.99,-402.44"/>
</g>
<!-- 21 -->
<g id="node28" class="node">
<title>21</title>
<ellipse fill="none" stroke="black" cx="567" cy="-666" rx="27" ry="18"/>
<text text-anchor="middle" x="567" y="-662.3" font-family="Times,serif" font-size="14.00">21</text>
</g>
<!-- 64 -->
<g id="node29" class="node">
<title>64</title>
<ellipse fill="none" stroke="black" cx="567" cy="-594" rx="27" ry="18"/>
<text text-anchor="middle" x="567" y="-590.3" font-family="Times,serif" font-size="14.00">64</text>
</g>
<!-- 21&#45;&gt;64 -->
<g id="edge21" class="edge">
<title>21&#45;&gt;64</title>
<path fill="none" stroke="black" d="M567,-647.7C567,-639.98 567,-630.71 567,-622.11"/>
<polygon fill="black" stroke="black" points="570.5,-622.1 567,-612.1 563.5,-622.1 570.5,-622.1"/>
</g>
<!-- 23 -->
<g id="node30" class="node">
<title>23</title>
<ellipse fill="none" stroke="black" cx="639" cy="-666" rx="27" ry="18"/>
<text text-anchor="middle" x="639" y="-662.3" font-family="Times,serif" font-size="14.00">23</text>
</g>
<!-- 70 -->
<g id="node31" class="node">
<title>70</title>
<ellipse fill="none" stroke="black" cx="639" cy="-594" rx="27" ry="18"/>
<text text-anchor="middle" x="639" y="-590.3" font-family="Times,serif" font-size="14.00">70</text>
</g>
<!-- 23&#45;&gt;70 -->
<g id="edge23" class="edge">
<title>23&#45;&gt;70</title>
<path fill="none" stroke="black" d="M639,-647.7C639,-639.98 639,-630.71 639,-622.11"/>
<polygon fill="black" stroke="black" points="642.5,-622.1 639,-612.1 635.5,-622.1 642.5,-622.1"/>
</g>
<!-- 24 -->
<g id="node32" class="node">
<title>24</title>
<ellipse fill="none" stroke="black" cx="27" cy="-666" rx="27" ry="18"/>
<text text-anchor="middle" x="27" y="-662.3" font-family="Times,serif" font-size="14.00">24</text>
</g>
<!-- 24&#45;&gt;12 -->
<g id="edge24" class="edge">
<title>24&#45;&gt;12</title>
<path fill="none" stroke="black" d="M27,-647.7C27,-639.98 27,-630.71 27,-622.11"/>
<polygon fill="black" stroke="black" points="30.5,-622.1 27,-612.1 23.5,-622.1 30.5,-622.1"/>
</g>
<!-- 25 -->
<g id="node33" class="node">
<title>25</title>
<ellipse fill="none" stroke="black" cx="711" cy="-666" rx="27" ry="18"/>
<text text-anchor="middle" x="711" y="-662.3" font-family="Times,serif" font-size="14.00">25</text>
</g>
<!-- 76 -->
<g id="node34" class="node">
<title>76</title>
<ellipse fill="none" stroke="black" cx="711" cy="-594" rx="27" ry="18"/>
<text text-anchor="middle" x="711" y="-590.3" font-family="Times,serif" font-size="14.00">76</text>
</g>
<!-- 25&#45;&gt;76 -->
<g id="edge25" class="edge">
<title>25&#45;&gt;76</title>
<path fill="none" stroke="black" d="M711,-647.7C711,-639.98 711,-630.71 711,-622.11"/>
<polygon fill="black" stroke="black" points="714.5,-622.1 711,-612.1 707.5,-622.1 714.5,-622.1"/>
</g>
<!-- 26 -->
<g id="node35" class="node">
<title>26</title>
<ellipse fill="none" stroke="black" cx="279" cy="-666" rx="27" ry="18"/>
<text text-anchor="middle" x="279" y="-662.3" font-family="Times,serif" font-size="14.00">26</text>
</g>
<!-- 26&#45;&gt;13 -->
<g id="edge26" class="edge">
<title>26&#45;&gt;13</title>
<path fill="none" stroke="black" d="M279,-647.7C279,-639.98 279,-630.71 279,-622.11"/>
<polygon fill="black" stroke="black" points="282.5,-622.1 279,-612.1 275.5,-622.1 282.5,-622.1"/>
</g>
<!-- 27 -->
<g id="node36" class="node">
<title>27</title>
<ellipse fill="none" stroke="black" cx="783" cy="-666" rx="27" ry="18"/>
<text text-anchor="middle" x="783" y="-662.3" font-family="Times,serif" font-size="14.00">27</text>
</g>
<!-- 82 -->
<g id="node37" class="node">
<title>82</title>
<ellipse fill="none" stroke="black" cx="783" cy="-594" rx="27" ry="18"/>
<text text-anchor="middle" x="783" y="-590.3" font-family="Times,serif" font-size="14.00">82</text>
</g>
<!-- 27&#45;&gt;82 -->
<g id="edge27" class="edge">
<title>27&#45;&gt;82</title>
<path fill="none" stroke="black" d="M783,-647.7C783,-639.98 783,-630.71 783,-622.11"/>
<polygon fill="black" stroke="black" points="786.5,-622.1 783,-612.1 779.5,-622.1 786.5,-622.1"/>
</g>
<!-- 29 -->
<g id="node38" class="node">
<title>29</title>
<ellipse fill="none" stroke="black" cx="855" cy="-666" rx="27" ry="18"/>
<text text-anchor="middle" x="855" y="-662.3" font-family="Times,serif" font-size="14.00">29</text>
</g>
<!-- 88 -->
<g id="node39" class="node">
<title>88</title>
<ellipse fill="none" stroke="black" cx="855" cy="-594" rx="27" ry="18"/>
<text text-anchor="middle" x="855" y="-590.3" font-family="Times,serif" font-size="14.00">88</text>
</g>
<!-- 29&#45;&gt;88 -->
<g id="edge29" class="edge">
<title>29&#45;&gt;88</title>
<path fill="none" stroke="black" d="M855,-647.7C855,-639.98 855,-630.71 855,-622.11"/>
<polygon fill="black" stroke="black" points="858.5,-622.1 855,-612.1 851.5,-622.1 858.5,-622.1"/>
</g>
<!-- 30 -->
<g id="node40" class="node">
<title>30</title>
<ellipse fill="none" stroke="black" cx="351" cy="-666" rx="27" ry="18"/>
<text text-anchor="middle" x="351" y="-662.3" font-family="Times,serif" font-size="14.00">30</text>
</g>
<!-- 30&#45;&gt;15 -->
<g id="edge30" class="edge">
<title>30&#45;&gt;15</title>
<path fill="none" stroke="black" d="M351,-647.7C351,-639.98 351,-630.71 351,-622.11"/>
<polygon fill="black" stroke="black" points="354.5,-622.1 351,-612.1 347.5,-622.1 354.5,-622.1"/>
</g>
</g>
</svg>
